<svg width="50" height="50" viewBox="0 0 50 50" fill="none" xmlns="http://www.w3.org/2000/svg">
<rect width="50" height="50" fill="#333333"/>
<path d="M15.0022 23.8608C14.9724 22.2102 15.2409 20.8828 15.8076 19.8786C16.3744 18.8743 17.1102 18.1435 18.015 17.6861C18.9298 17.2287 19.8943 17 20.9085 17C21.9227 17 22.8474 17.2237 23.6826 17.6712C24.5278 18.1087 25.4923 18.7997 26.5761 19.7443C27.3119 20.3807 27.8985 20.8281 28.336 21.0866C28.7835 21.3452 29.2707 21.4744 29.7977 21.4744C30.6528 21.4744 31.3289 21.1662 31.8261 20.5497C32.3233 19.9233 32.5619 19.0185 32.542 17.8352H35.7636C35.7934 19.4858 35.525 20.8132 34.9582 21.8175C34.4014 22.8217 33.6656 23.5526 32.7508 24.0099C31.836 24.4673 30.8716 24.696 29.8574 24.696C28.8431 24.696 27.9184 24.4773 27.0832 24.0398C26.248 23.5923 25.2835 22.8963 24.1897 21.9517C23.4639 21.3153 22.8772 20.8679 22.4298 20.6094C21.9824 20.3509 21.4951 20.2216 20.9681 20.2216C20.1627 20.2216 19.4966 20.505 18.9696 21.0717C18.4525 21.6286 18.2039 22.5582 18.2238 23.8608H15.0022Z" fill="white"/>
<path d="M15.0022 32.8608C14.9724 31.2102 15.2409 29.8828 15.8076 28.8786C16.3744 27.8743 17.1102 27.1435 18.015 26.6861C18.9298 26.2287 19.8943 26 20.9085 26C21.9227 26 22.8474 26.2237 23.6826 26.6712C24.5278 27.1087 25.4923 27.7997 26.5761 28.7443C27.3119 29.3807 27.8985 29.8281 28.336 30.0866C28.7835 30.3452 29.2707 30.4744 29.7977 30.4744C30.6528 30.4744 31.3289 30.1662 31.8261 29.5497C32.3233 28.9233 32.5619 28.0185 32.542 26.8352H35.7636C35.7934 28.4858 35.525 29.8132 34.9582 30.8175C34.4014 31.8217 33.6656 32.5526 32.7508 33.0099C31.836 33.4673 30.8716 33.696 29.8574 33.696C28.8431 33.696 27.9184 33.4773 27.0832 33.0398C26.248 32.5923 25.2835 31.8963 24.1897 30.9517C23.4639 30.3153 22.8772 29.8679 22.4298 29.6094C21.9824 29.3509 21.4951 29.2216 20.9681 29.2216C20.1627 29.2216 19.4966 29.505 18.9696 30.0717C18.4525 30.6286 18.2039 31.5582 18.2238 32.8608H15.0022Z" fill="white"/>
</svg>
